<?xml version="1.0" encoding="UTF-8"?>
<svg width="348px" height="302px" viewBox="0 0 348 302" version="1.1" xmlns="http://www.w3.org/2000/svg" xmlns:xlink="http://www.w3.org/1999/xlink">
    <title>logo-1-invert copy</title>
    <desc>Created with Sketch.</desc>
    <defs>
        <linearGradient x1="50%" y1="19.5083027%" x2="50%" y2="96.8321173%" id="linearGradient-1">
            <stop stop-color="#FFFFFF" offset="0%"></stop>
            <stop stop-color="#E4E2ED" offset="100%"></stop>
        </linearGradient>
    </defs>
    <g id="logo-1-invert-copy" stroke="none" stroke-width="1" fill="none" fill-rule="evenodd">
        <path d="M316.361379,233.433482 C288.136668,253.83838 228.463315,283.068632 153.429886,301.518296 C127.816523,307.816261 200.104101,250.382945 171.368364,244.472146 L78.3,244.472146 C64.1625,244.472146 51.1125,240.925117 39.15,233.83106 C27.1875,226.737002 17.671875,217.187308 10.603125,205.18198 C3.534375,193.176651 0,180.079929 0,165.891814 C0,148.793318 4.89375,133.513809 14.68125,120.053286 C24.46875,106.592763 36.975,97.1340224 52.2,91.6770548 L52.2,87.3114808 C52.2,71.668171 56.0968778,57.1162631 63.890625,43.6557404 C71.6843722,30.1952177 82.2874972,19.5541309 95.7,11.7324802 C109.112503,3.91082952 123.703125,0 139.471875,0 C155.240625,0 169.831247,4.00177343 183.24375,12.0053286 C196.656253,20.0088838 207.16875,30.5590183 214.78125,43.6557404 C223.48125,37.8349722 233.087503,34.9245923 243.6,34.9245923 C258.100003,34.9245923 270.424997,40.0177593 280.575,50.2041015 C290.725003,60.3904437 295.8,72.7595646 295.8,87.3114808 C295.8,93.8598419 294.7125,100.226307 292.5375,106.410867 C308.487497,109.685048 321.718753,117.688603 332.23125,130.421524 C342.743747,143.154446 348,157.888258 348,174.622962 C348,187.355883 344.918747,199.088363 338.75625,209.820402 C333.159815,219.56664 325.694858,227.437667 316.361379,233.433482 Z" id="Combined-Shape" fill="url(#linearGradient-1)"></path>
    </g>
</svg>
